<svg width="1080" height="3684" viewBox="0 0 1080 3684" fill="none" xmlns="http://www.w3.org/2000/svg" xmlns:xlink="http://www.w3.org/1999/xlink">
    <defs>
        <path id="path1" d="M215.33 201.832C209.059 200.702 203.29 199.113 198.484 195.383C188.281 187.474 182.738 177.076 182.492 163.797C182.364 157.198 182.895 150.569 181.942 144C180.359 133.142 175.317 123.893 168.899 115.274C165.085 110.155 160.485 105.795 156.062 101.266C154.146 99.2964 152.396 97.1967 151.168 94.707C149.074 90.4876 149.644 85.7282 152.73 82.2787C156.003 78.6092 159.955 76.8295 164.82 78.5492C168.683 79.919 170.55 83.0186 171.346 86.9381C171.965 90.0276 172.054 93.1972 172.86 96.2668C174.855 103.856 178.728 110.495 182.787 117.054C184.448 119.734 186.109 122.413 187.731 125.113C191.338 131.122 199.358 132.702 204.882 128.432C209.177 125.113 211.733 120.513 213.187 115.384C216.244 104.576 216.903 93.4972 215.999 82.3187C215.763 79.3391 214.898 76.4895 213.866 73.6799C210.937 65.781 210.553 57.9221 214.642 50.2731C217.286 45.3238 222.672 42.8042 228.206 43.5341C238.851 44.9239 244.109 54.1526 240.531 65.381C239.204 69.5405 237.062 73.27 234.811 76.9495C231.273 82.7487 229.032 89.0278 227.832 95.7269C226.338 104.096 224.982 112.475 225.896 121.033C226.103 123.013 226.584 124.943 227.253 126.813C229.002 131.732 232.079 132.882 237.494 131.952C238.585 131.762 239.578 131.232 240.463 130.572C251.707 122.163 261.486 112.405 268.288 99.8163C270.843 95.087 272.495 89.9477 275.021 85.2183C276.19 83.0386 277.606 81.0389 279.512 79.4991C283.002 76.6695 286.904 75.4097 291.287 76.9595C296.084 78.6492 298.787 82.3087 299.652 87.268C300.9 94.447 297.686 100.296 290.501 104.276C289.341 104.916 288.162 105.556 286.923 106.045C279.719 108.895 273.743 113.504 268.691 119.344C263.875 124.903 258.774 130.252 254.881 136.571C253.142 139.391 252.041 142.45 252.385 145.89C253.024 152.339 257.82 156.728 264.229 155.829C275.001 154.319 285.036 150.839 293.007 142.72C297.214 138.441 302.217 135.451 308.252 134.751C312.528 134.262 316.587 134.871 319.624 138.391C323.388 142.77 322.976 149.889 318.749 154.809C314.641 159.598 309.245 160.648 303.387 160.148C300.35 159.888 297.342 159.018 294.315 158.998C288.152 158.968 282.5 161.208 276.986 163.807C270.332 166.947 265.673 172.336 261.319 178.086C257.221 183.505 253.328 189.094 248.424 193.833C241.013 201.002 232.255 203.822 222.161 202.782C219.743 202.532 217.355 202.182 215.35 201.772L215.33 201.832Z" fill="#CAC8CC"/>

        <path id="path2" d="M172.378 261.154C176.536 256.255 180.025 251.305 181.431 245.326C184.418 232.648 182.256 221.01 174.206 210.571C170.206 205.382 165.675 200.572 162.343 194.873C156.819 185.445 154.991 175.036 154.608 164.227C154.382 157.808 155.237 151.479 155.856 145.12C156.121 142.36 156.17 139.611 155.571 136.891C154.568 132.272 151.177 128.952 146.636 128.262C141.82 127.523 137.653 128.682 134.95 133.142C132.807 136.681 133.279 140.291 135.107 143.84C136.542 146.64 138.449 149.15 139.737 152.039C142.901 159.198 144.032 166.837 144.956 174.536C145.339 177.676 145.713 180.825 146.125 183.965C147.059 190.944 141.83 197.323 134.891 197.563C129.495 197.753 124.659 195.823 120.354 192.794C111.272 186.384 103.881 178.226 97.6397 168.977C95.9688 166.507 94.8679 163.748 93.9342 160.908C91.3001 152.899 86.71 146.57 78.788 143.27C73.6573 141.131 67.9271 142.65 64.084 146.77C56.7026 154.689 58.3538 165.217 68.104 171.626C71.7112 173.996 75.7017 175.506 79.7217 176.916C86.0711 179.135 91.7031 182.565 96.7944 186.984C103.154 192.514 109.415 198.133 114.015 205.352C115.076 207.022 115.911 208.821 116.56 210.701C118.261 215.64 116.59 218.51 111.813 221.27C110.85 221.83 109.749 222.05 108.658 222.109C94.7205 222.819 81.0682 221.54 67.9861 216.16C63.0716 214.141 58.5995 211.211 53.6949 209.171C51.4441 208.231 49.1049 207.591 46.6575 207.621C42.1952 207.671 38.3816 209.201 35.9539 213.221C33.2903 217.62 33.4672 222.179 35.8753 226.589C39.3645 232.958 45.4879 235.418 53.5278 233.888C54.8253 233.638 56.1423 233.378 57.4004 232.958C64.7524 230.538 72.2518 230.268 79.8003 231.538C86.9852 232.748 94.2585 233.618 101.208 236.018C104.304 237.087 107.056 238.757 108.933 241.637C112.442 247.046 111.449 253.535 105.925 256.955C96.6371 262.704 86.7002 266.463 75.4756 265.294C69.5587 264.674 63.8186 265.573 58.7076 268.923C55.0906 271.283 52.3189 274.382 52.1616 279.052C51.9651 284.861 56.7124 290.12 63.0323 291.22C69.1852 292.29 74.0308 289.64 78.2572 285.481C80.449 283.331 82.2477 280.721 84.5771 278.762C89.3343 274.772 95.1038 272.883 101.001 271.353C108.107 269.513 115.066 270.693 122.015 272.353C128.561 273.912 135.038 275.752 141.791 276.272C151.983 277.062 160.525 273.622 167.709 266.323C169.43 264.574 171.061 262.764 172.359 261.164L172.378 261.154Z" fill="#CAC8CC"/>

        <g id="hands">
            <use xlink:href="#path1"/>
            <use xlink:href="#path2"/>
        </g>

        <g id="hands-row">
            <use xlink:href="#hands"/>
            <use xlink:href="#hands" transform="translate(353.819, 0)"/>
            <use xlink:href="#hands" transform="translate(727.953, 0)"/>
        </g>
    </defs>

    <g clip-path="url(#clip0_2021_192)">
        <path d="M93.5509 0H985.449C1037.08 0 1080 42.6441 1080 95.1669V3774H0V95.1669C0 42.6441 41.92 0 93.5509 0Z" fill="#EFEDF2"/>

        <g style="mix-blend-mode:multiply" opacity="0.35">
            <use xlink:href="#hands-row" style="mix-blend-mode:multiply" opacity="0.3"/>
            <use xlink:href="#hands-row" transform="translate(0, 311.587)" style="mix-blend-mode:multiply" opacity="0.3"/>
            <use xlink:href="#hands-row" transform="translate(0, 597.818)" style="mix-blend-mode:multiply" opacity="0.3"/>
            <use xlink:href="#hands-row" transform="translate(0, 909.418)" style="mix-blend-mode:multiply" opacity="0.3"/>
            <use xlink:href="#hands-row" transform="translate(0, 1206.18)" style="mix-blend-mode:multiply" opacity="0.3"/>
            <use xlink:href="#hands-row" transform="translate(0, 1517.78)" style="mix-blend-mode:multiply" opacity="0.3"/>
            <use xlink:href="#hands-row" transform="translate(0, 1829.38)" style="mix-blend-mode:multiply" opacity="0.3"/>
            <use xlink:href="#hands-row" transform="translate(0, 2140.98)" style="mix-blend-mode:multiply" opacity="0.3"/>
            <use xlink:href="#hands-row" transform="translate(0, 2452.58)" style="mix-blend-mode:multiply" opacity="0.3"/>
            <use xlink:href="#hands-row" transform="translate(0, 2764.18)" style="mix-blend-mode:multiply" opacity="0.3"/>
            <use xlink:href="#hands-row" transform="translate(0, 3075.78)" style="mix-blend-mode:multiply" opacity="0.3"/>
            <use xlink:href="#hands-row" transform="translate(0, 3387.38)" style="mix-blend-mode:multiply" opacity="0.3"/>
        </g>
    </g>
</svg>
